<svg width="128" height="128" viewBox="0 0 128 128" fill="none" xmlns="http://www.w3.org/2000/svg">
  <!-- Flow moved toward top-right -->
  <g transform="translate(8,-20)">
    <rect x="14" y="22" width="28" height="20" rx="4" stroke="currentColor" stroke-width="6"></rect>
    <rect x="50" y="54" width="28" height="20" rx="4" stroke="currentColor" stroke-width="6"></rect>
    <rect x="86" y="86" width="28" height="20" rx="4" stroke="currentColor" stroke-width="6"></rect>

    <path d="M42 32H64V54" stroke="currentColor" stroke-width="6" stroke-linecap="round" stroke-linejoin="round"></path>
    <path d="M78 64H100V86" stroke="currentColor" stroke-width="6" stroke-linecap="round" stroke-linejoin="round"></path>

    <path d="M100 106V116" stroke="currentColor" stroke-width="6" stroke-linecap="round"></path>
    <path d="M100 116L93 109" stroke="currentColor" stroke-width="6" stroke-linecap="round" stroke-linejoin="round"></path>
    <path d="M100 116L107 109" stroke="currentColor" stroke-width="6" stroke-linecap="round" stroke-linejoin="round"></path>
  </g>

  <!-- Wrench moved upward so full body is visible -->
  <g transform="translate(5,50) scale(0.16) rotate(-3 239.895 239.895)">
    <path d="M478.409,116.617c-0.368-4.271-3.181-7.94-7.2-9.403c-4.029-1.472-8.539-0.47-11.57,2.556l-62.015,62.011
      l-68.749-21.768l-21.768-68.748l62.016-62.016c3.035-3.032,4.025-7.543,2.563-11.565c-1.477-4.03-5.137-6.837-9.417-7.207
      c-37.663-3.245-74.566,10.202-101.247,36.887c-36.542,36.545-46.219,89.911-29.083,135.399c-1.873,1.578-3.721,3.25-5.544,5.053
      L19.386,373.152c-0.073,0.071-0.145,0.149-0.224,0.219c-24.345,24.346-24.345,63.959,0,88.309
      c24.349,24.344,63.672,24.048,88.013-0.298c0.105-0.098,0.201-0.196,0.297-0.305l193.632-208.621
      c1.765-1.773,3.404-3.628,4.949-5.532c45.5,17.167,98.9,7.513,135.474-29.056C468.202,191.181,481.658,154.275,478.409,116.617z
      M75.98,435.38c-8.971,8.969-23.5,8.963-32.47,0c-8.967-8.961-8.967-23.502,0-32.466c8.97-8.963,23.499-8.963,32.47,0
      C84.947,411.878,84.947,426.419,75.98,435.38z" fill="currentColor"></path>
  </g>
</svg>
